<svg xmlns="http://www.w3.org/2000/svg" viewBox="0 0 880 660" width="880" height="660" role="img" aria-label="svc-line">
<title>svc-line</title>
<defs>
  <linearGradient id="bg5t15v" x1="6%" y1="0%" x2="94%" y2="100%">
    <stop offset="0%" stop-color="#eeebe4"/><stop offset="100%" stop-color="#EDEAE3"/>
  </linearGradient>
  <radialGradient id="gl5t15v" cx="30%" cy="18%" r="66%">
    <stop offset="0%" stop-color="#FFFFFF" stop-opacity=".30"/><stop offset="100%" stop-color="#FFFFFF" stop-opacity="0"/>
  </radialGradient>
  <radialGradient id="vg5t15v" cx="50%" cy="46%" r="72%">
    <stop offset="55%" stop-color="#000" stop-opacity="0"/><stop offset="100%" stop-color="#000" stop-opacity=".10"/>
  </radialGradient>
  <filter id="gr5t15v"><feTurbulence type="fractalNoise" baseFrequency="0.85" numOctaves="4" seed="29"/>
    <feColorMatrix type="saturate" values="0"/></filter>
  <filter id="sf5t15v" x="-25%" y="-25%" width="150%" height="150%"><feColorMatrix type="matrix" values="0 0 0 0 0  0 0 0 0 0  0 0 0 0 0  0 0 0 1 0"/><feGaussianBlur stdDeviation="18"/></filter>
  <linearGradient id="lg" x1="16%" y1="4%" x2="86%" y2="100%">
    <stop offset="0%" stop-color="#c1bcb3"/><stop offset="50%" stop-color="#ADA79B"/><stop offset="100%" stop-color="#5f5c55"/>
  </linearGradient>
  <linearGradient id="lg2" x1="0%" y1="0%" x2="100%" y2="100%">
    <stop offset="0%" stop-color="#9f9a8f"/><stop offset="100%" stop-color="#5f5c55"/>
  </linearGradient>
  <linearGradient id="metal" x1="0%" y1="0%" x2="100%" y2="100%">
    <stop offset="0%" stop-color="#EFEDE9"/><stop offset="40%" stop-color="#96948F"/>
    <stop offset="64%" stop-color="#E0DDD8"/><stop offset="100%" stop-color="#7A7874"/>
  </linearGradient>
</defs>
<style>svg{--dk:#5f5c55;--st:#cecac3;--bg2:#EDEAE3}</style>
<rect width="880" height="660" fill="url(#bg5t15v)"/>
<rect width="880" height="660" fill="url(#gl5t15v)"/>



<g transform="translate(440,330) scale(0.5961290322580646) translate(-400,-480)" opacity=".92">
         <g filter="url(#sf5t15v)" opacity=".45" transform="translate(10,18)">
  <path d="M338 340 Q400 232 462 340 Q400 312 338 340 Z" fill="url(#lg2)"/>
  <path d="M302 330 Q400 306 498 330 L514 618 Q514 642 490 642 L310 642 Q286 642 286 618 Z" fill="url(#lg)"/>
  <path d="M308 328 L228 368 L192 588 L282 610 L308 424 Z" fill="url(#lg2)"/>
  <path d="M492 328 L572 368 L608 588 L518 610 L492 424 Z" fill="url(#lg2)"/>
  <path d="M400 336 L400 640" stroke="url(#metal)" stroke-width="7" stroke-dasharray="5 4"/>
  <path d="M392 320 h16 v22 h-16 z" fill="url(#metal)"/>
  <path d="M378 358 L370 442 M422 358 L430 442" stroke="var(--st)" stroke-width="3.5" opacity=".75" stroke-linecap="round"/>
  <path d="M322 516 L356 588 M478 516 L444 588" stroke="var(--dk)" stroke-width="3" opacity=".3"/>
  <rect x="286" y="606" width="228" height="34" fill="var(--st)" opacity=".2"/>
  <rect x="196" y="576" width="80" height="28" fill="var(--st)" opacity=".2"/>
  <rect x="524" y="576" width="80" height="28" fill="var(--st)" opacity=".2"/></g>
         <g>
  <path d="M338 340 Q400 232 462 340 Q400 312 338 340 Z" fill="url(#lg2)"/>
  <path d="M302 330 Q400 306 498 330 L514 618 Q514 642 490 642 L310 642 Q286 642 286 618 Z" fill="url(#lg)"/>
  <path d="M308 328 L228 368 L192 588 L282 610 L308 424 Z" fill="url(#lg2)"/>
  <path d="M492 328 L572 368 L608 588 L518 610 L492 424 Z" fill="url(#lg2)"/>
  <path d="M400 336 L400 640" stroke="url(#metal)" stroke-width="7" stroke-dasharray="5 4"/>
  <path d="M392 320 h16 v22 h-16 z" fill="url(#metal)"/>
  <path d="M378 358 L370 442 M422 358 L430 442" stroke="var(--st)" stroke-width="3.5" opacity=".75" stroke-linecap="round"/>
  <path d="M322 516 L356 588 M478 516 L444 588" stroke="var(--dk)" stroke-width="3" opacity=".3"/>
  <rect x="286" y="606" width="228" height="34" fill="var(--st)" opacity=".2"/>
  <rect x="196" y="576" width="80" height="28" fill="var(--st)" opacity=".2"/>
  <rect x="524" y="576" width="80" height="28" fill="var(--st)" opacity=".2"/></g>
       </g>
<rect width="880" height="660" filter="url(#gr5t15v)" opacity=".06" style="mix-blend-mode:overlay"/>
<rect width="880" height="660" fill="url(#vg5t15v)"/>
</svg>