<svg xmlns="http://www.w3.org/2000/svg" viewBox="0 0 800 930" width="800" height="930" role="img" aria-label="カシミヤ タートルネック／グレージュ">
<title>カシミヤ タートルネック／グレージュ</title>
<defs>
  <radialGradient id="plate" cx="50%" cy="34%" r="78%">
    <stop offset="0%" stop-color="#1A1A1D"/><stop offset="100%" stop-color="#111113"/>
  </radialGradient>
  <linearGradient id="lg" x1="18%" y1="4%" x2="86%" y2="100%">
    <stop offset="0%" stop-color="#cbc4ba"/><stop offset="46%" stop-color="#B9AFA2"/><stop offset="100%" stop-color="#6b665e"/>
  </linearGradient>
  <linearGradient id="lg2" x1="0%" y1="0%" x2="100%" y2="100%">
    <stop offset="0%" stop-color="#aea598"/><stop offset="100%" stop-color="#6b665e"/>
  </linearGradient>
  <linearGradient id="metal" x1="0%" y1="0%" x2="100%" y2="100%">
    <stop offset="0%" stop-color="#F2F0EC"/><stop offset="38%" stop-color="#9C9A95"/>
    <stop offset="62%" stop-color="#E4E1DC"/><stop offset="100%" stop-color="#7E7C78"/>
  </linearGradient>
  <radialGradient id="glow" cx="50%" cy="26%" r="52%">
    <stop offset="0%" stop-color="#ffffff" stop-opacity=".10"/><stop offset="100%" stop-color="#ffffff" stop-opacity="0"/>
  </radialGradient>
  <radialGradient id="shadow" cx="50%" cy="50%" r="50%">
    <stop offset="0%" stop-color="#000" stop-opacity=".55"/><stop offset="100%" stop-color="#000" stop-opacity="0"/>
  </radialGradient>
  <filter id="soft" x="-25%" y="-25%" width="150%" height="150%"><feColorMatrix type="matrix" values="0 0 0 0 0  0 0 0 0 0  0 0 0 0 0  0 0 0 1 0"/><feGaussianBlur stdDeviation="12"/></filter>
</defs>
<style>svg{--dk:#6b665e;--st:#d9d3cc;--bg2:#111113}</style>
<rect width="800" height="930" fill="url(#plate)"/>
<rect width="800" height="930" fill="url(#glow)"/>
<ellipse cx="402" cy="768" rx="232" ry="36" fill="url(#shadow)"/>
<g transform="translate(400,480) scale(1.2) translate(-400,-480)">
  <g filter="url(#soft)" opacity=".42" transform="translate(7,14)">
  <path d="M302 350 Q400 326 498 350 L512 628 Q512 650 490 650 L310 650 Q288 650 288 628 Z" fill="url(#lg)"/>
  <path d="M308 348 L232 388 L198 600 L282 622 L308 444 Z" fill="url(#lg2)"/>
  <path d="M492 348 L568 388 L602 600 L518 622 L492 444 Z" fill="url(#lg2)"/>
  <path d="M356 284 q44 -16 88 0 l6 66 q-50 -18 -100 0 Z" fill="url(#lg2)"/>
  <path d="M358 306 q42 -14 84 0 M358 326 q42 -14 84 0" stroke="var(--st)" stroke-width="2" fill="none" opacity=".35"/>
  <rect x="294" y="612" width="212" height="34" fill="var(--st)" opacity=".18"/></g>
  <g>
  <path d="M302 350 Q400 326 498 350 L512 628 Q512 650 490 650 L310 650 Q288 650 288 628 Z" fill="url(#lg)"/>
  <path d="M308 348 L232 388 L198 600 L282 622 L308 444 Z" fill="url(#lg2)"/>
  <path d="M492 348 L568 388 L602 600 L518 622 L492 444 Z" fill="url(#lg2)"/>
  <path d="M356 284 q44 -16 88 0 l6 66 q-50 -18 -100 0 Z" fill="url(#lg2)"/>
  <path d="M358 306 q42 -14 84 0 M358 326 q42 -14 84 0" stroke="var(--st)" stroke-width="2" fill="none" opacity=".35"/>
  <rect x="294" y="612" width="212" height="34" fill="var(--st)" opacity=".18"/></g>
  <g opacity=".18" style="mix-blend-mode:screen">
  <path d="M302 350 Q400 326 498 350 L512 628 Q512 650 490 650 L310 650 Q288 650 288 628 Z" fill="none" stroke="#ffffff" stroke-width="1" opacity=".5"/>
  <path d="M308 348 L232 388 L198 600 L282 622 L308 444 Z" fill="url(#lg2)"/>
  <path d="M492 348 L568 388 L602 600 L518 622 L492 444 Z" fill="url(#lg2)"/>
  <path d="M356 284 q44 -16 88 0 l6 66 q-50 -18 -100 0 Z" fill="url(#lg2)"/>
  <path d="M358 306 q42 -14 84 0 M358 326 q42 -14 84 0" stroke="var(--st)" stroke-width="2" fill="none" opacity=".35"/>
  <rect x="294" y="612" width="212" height="34" fill="var(--st)" opacity=".18"/></g>
</g>
<text x="400" y="866" text-anchor="middle" font-family="Optima, Georgia, serif" font-size="15"
      letter-spacing="7" fill="#ffffff" opacity=".17">LADENNE</text>
</svg>