<svg xmlns="http://www.w3.org/2000/svg" viewBox="0 0 800 930" width="800" height="930" role="img" aria-label="エンベロープ カードケース シュリンクレザー／ローズ">
<title>エンベロープ カードケース シュリンクレザー／ローズ</title>
<defs>
  <radialGradient id="plate" cx="50%" cy="34%" r="78%">
    <stop offset="0%" stop-color="#1A1A1D"/><stop offset="100%" stop-color="#111113"/>
  </radialGradient>
  <linearGradient id="lg" x1="18%" y1="4%" x2="86%" y2="100%">
    <stop offset="0%" stop-color="#d7a7b0"/><stop offset="46%" stop-color="#C98894"/><stop offset="100%" stop-color="#754f56"/>
  </linearGradient>
  <linearGradient id="lg2" x1="0%" y1="0%" x2="100%" y2="100%">
    <stop offset="0%" stop-color="#bd808b"/><stop offset="100%" stop-color="#754f56"/>
  </linearGradient>
  <linearGradient id="metal" x1="0%" y1="0%" x2="100%" y2="100%">
    <stop offset="0%" stop-color="#F2F0EC"/><stop offset="38%" stop-color="#9C9A95"/>
    <stop offset="62%" stop-color="#E4E1DC"/><stop offset="100%" stop-color="#7E7C78"/>
  </linearGradient>
  <radialGradient id="glow" cx="50%" cy="26%" r="52%">
    <stop offset="0%" stop-color="#ffffff" stop-opacity=".10"/><stop offset="100%" stop-color="#ffffff" stop-opacity="0"/>
  </radialGradient>
  <radialGradient id="shadow" cx="50%" cy="50%" r="50%">
    <stop offset="0%" stop-color="#000" stop-opacity=".55"/><stop offset="100%" stop-color="#000" stop-opacity="0"/>
  </radialGradient>
  <filter id="soft" x="-25%" y="-25%" width="150%" height="150%"><feColorMatrix type="matrix" values="0 0 0 0 0  0 0 0 0 0  0 0 0 0 0  0 0 0 1 0"/><feGaussianBlur stdDeviation="12"/></filter>
</defs>
<style>svg{--dk:#754f56;--st:#e1bec4;--bg2:#111113}</style>
<rect width="800" height="930" fill="url(#plate)"/>
<rect width="800" height="930" fill="url(#glow)"/>
<ellipse cx="402" cy="768" rx="232" ry="36" fill="url(#shadow)"/>
<g transform="translate(400,480) scale(1.2) translate(-400,-480)">
  <g filter="url(#soft)" opacity=".42" transform="translate(7,14)">
  <path d="M248 420 h304 q14 0 14 14 v132 q0 14 -14 14 h-304 q-14 0 -14 -14 v-132 q0 -14 14 -14 z" fill="url(#lg)"/>
  <path d="M234 434 L400 528 L566 434 L566 448 L400 542 L234 448 Z" fill="var(--dk)" opacity=".28"/>
  <path d="M248 436 L552 436" fill="none" stroke="var(--st)" stroke-width="2" stroke-dasharray="7 6" stroke-linecap="round" opacity=".55"/>
  <path d="M248 564 L552 564" fill="none" stroke="var(--st)" stroke-width="2" stroke-dasharray="7 6" stroke-linecap="round" opacity=".55"/>
  <path d="M390 520 h20 v20 h-20 z" fill="url(#metal)"/></g>
  <g>
  <path d="M248 420 h304 q14 0 14 14 v132 q0 14 -14 14 h-304 q-14 0 -14 -14 v-132 q0 -14 14 -14 z" fill="url(#lg)"/>
  <path d="M234 434 L400 528 L566 434 L566 448 L400 542 L234 448 Z" fill="var(--dk)" opacity=".28"/>
  <path d="M248 436 L552 436" fill="none" stroke="var(--st)" stroke-width="2" stroke-dasharray="7 6" stroke-linecap="round" opacity=".55"/>
  <path d="M248 564 L552 564" fill="none" stroke="var(--st)" stroke-width="2" stroke-dasharray="7 6" stroke-linecap="round" opacity=".55"/>
  <path d="M390 520 h20 v20 h-20 z" fill="url(#metal)"/></g>
  <g opacity=".18" style="mix-blend-mode:screen">
  <path d="M248 420 h304 q14 0 14 14 v132 q0 14 -14 14 h-304 q-14 0 -14 -14 v-132 q0 -14 14 -14 z" fill="none" stroke="#ffffff" stroke-width="1" opacity=".5"/>
  <path d="M234 434 L400 528 L566 434 L566 448 L400 542 L234 448 Z" fill="var(--dk)" opacity=".28"/>
  <path d="M248 436 L552 436" fill="none" stroke="var(--st)" stroke-width="2" stroke-dasharray="7 6" stroke-linecap="round" opacity=".55"/>
  <path d="M248 564 L552 564" fill="none" stroke="var(--st)" stroke-width="2" stroke-dasharray="7 6" stroke-linecap="round" opacity=".55"/>
  <path d="M390 520 h20 v20 h-20 z" fill="url(#metal)"/></g>
</g>
<text x="400" y="866" text-anchor="middle" font-family="Optima, Georgia, serif" font-size="15"
      letter-spacing="7" fill="#ffffff" opacity=".17">LADENNE</text>
</svg>