<svg xmlns="http://www.w3.org/2000/svg" viewBox="0 0 800 930" width="800" height="930" role="img" aria-label="モンテ ムートンコート／チョコレート">
<title>モンテ ムートンコート／チョコレート</title>
<defs>
  <radialGradient id="plate" cx="50%" cy="34%" r="78%">
    <stop offset="0%" stop-color="#2A2A30"/><stop offset="100%" stop-color="#1B1B20"/>
  </radialGradient>
  <linearGradient id="lg" x1="18%" y1="4%" x2="86%" y2="100%">
    <stop offset="0%" stop-color="#796d64"/><stop offset="46%" stop-color="#4A3A2E"/><stop offset="100%" stop-color="#2b221b"/>
  </linearGradient>
  <linearGradient id="lg2" x1="0%" y1="0%" x2="100%" y2="100%">
    <stop offset="0%" stop-color="#46372b"/><stop offset="100%" stop-color="#2b221b"/>
  </linearGradient>
  <linearGradient id="metal" x1="0%" y1="0%" x2="100%" y2="100%">
    <stop offset="0%" stop-color="#F2F0EC"/><stop offset="38%" stop-color="#9C9A95"/>
    <stop offset="62%" stop-color="#E4E1DC"/><stop offset="100%" stop-color="#7E7C78"/>
  </linearGradient>
  <radialGradient id="glow" cx="50%" cy="26%" r="52%">
    <stop offset="0%" stop-color="#ffffff" stop-opacity=".10"/><stop offset="100%" stop-color="#ffffff" stop-opacity="0"/>
  </radialGradient>
  <radialGradient id="shadow" cx="50%" cy="50%" r="50%">
    <stop offset="0%" stop-color="#000" stop-opacity=".55"/><stop offset="100%" stop-color="#000" stop-opacity="0"/>
  </radialGradient>
  <filter id="soft" x="-25%" y="-25%" width="150%" height="150%"><feColorMatrix type="matrix" values="0 0 0 0 0  0 0 0 0 0  0 0 0 0 0  0 0 0 1 0"/><feGaussianBlur stdDeviation="12"/></filter>
</defs>
<style>svg{--dk:#2b221b;--st:#9b938c;--bg2:#1B1B20}</style>
<rect width="800" height="930" fill="url(#plate)"/>
<rect width="800" height="930" fill="url(#glow)"/>
<ellipse cx="402" cy="768" rx="232" ry="36" fill="url(#shadow)"/>
<g transform="translate(400,480) scale(1.2) translate(-400,-480)">
  <g filter="url(#soft)" opacity=".42" transform="translate(7,14)">
  <path d="M292 320 Q400 294 508 320 L528 740 Q528 764 504 764 L296 764 Q272 764 272 740 Z" fill="url(#lg)"/>
  <path d="M298 318 L216 358 L180 668 L270 690 L298 422 Z" fill="url(#lg2)"/>
  <path d="M502 318 L584 358 L620 668 L530 690 L502 422 Z" fill="url(#lg2)"/>
  <path d="M330 300 q14 -22 34 -6 q18 -18 36 -2 q18 -16 36 2 q20 -16 34 6 q-12 26 -34 22 q-18 16 -36 0 q-18 16 -36 0 q-22 4 -34 -22 Z" fill="var(--st)" opacity=".55"/>
  <path d="M300 740 q100 20 200 0" fill="none" stroke="var(--st)" stroke-width="10" opacity=".4" stroke-linecap="round"/>
  <path d="M400 340 L400 756" stroke="var(--dk)" stroke-width="3" opacity=".4"/></g>
  <g>
  <path d="M292 320 Q400 294 508 320 L528 740 Q528 764 504 764 L296 764 Q272 764 272 740 Z" fill="url(#lg)"/>
  <path d="M298 318 L216 358 L180 668 L270 690 L298 422 Z" fill="url(#lg2)"/>
  <path d="M502 318 L584 358 L620 668 L530 690 L502 422 Z" fill="url(#lg2)"/>
  <path d="M330 300 q14 -22 34 -6 q18 -18 36 -2 q18 -16 36 2 q20 -16 34 6 q-12 26 -34 22 q-18 16 -36 0 q-18 16 -36 0 q-22 4 -34 -22 Z" fill="var(--st)" opacity=".55"/>
  <path d="M300 740 q100 20 200 0" fill="none" stroke="var(--st)" stroke-width="10" opacity=".4" stroke-linecap="round"/>
  <path d="M400 340 L400 756" stroke="var(--dk)" stroke-width="3" opacity=".4"/></g>
  <g opacity=".18" style="mix-blend-mode:screen">
  <path d="M292 320 Q400 294 508 320 L528 740 Q528 764 504 764 L296 764 Q272 764 272 740 Z" fill="none" stroke="#ffffff" stroke-width="1" opacity=".5"/>
  <path d="M298 318 L216 358 L180 668 L270 690 L298 422 Z" fill="url(#lg2)"/>
  <path d="M502 318 L584 358 L620 668 L530 690 L502 422 Z" fill="url(#lg2)"/>
  <path d="M330 300 q14 -22 34 -6 q18 -18 36 -2 q18 -16 36 2 q20 -16 34 6 q-12 26 -34 22 q-18 16 -36 0 q-18 16 -36 0 q-22 4 -34 -22 Z" fill="var(--st)" opacity=".55"/>
  <path d="M300 740 q100 20 200 0" fill="none" stroke="var(--st)" stroke-width="10" opacity=".4" stroke-linecap="round"/>
  <path d="M400 340 L400 756" stroke="var(--dk)" stroke-width="3" opacity=".4"/></g>
</g>
<text x="400" y="866" text-anchor="middle" font-family="Optima, Georgia, serif" font-size="15"
      letter-spacing="7" fill="#ffffff" opacity=".17">LADENNE</text>
</svg>