<svg xmlns="http://www.w3.org/2000/svg" viewBox="0 0 880 660" width="880" height="660" role="img" aria-label="svc-return">
<title>svc-return</title>
<defs>
  <linearGradient id="bgot7zf" x1="6%" y1="0%" x2="94%" y2="100%">
    <stop offset="0%" stop-color="#393736"/><stop offset="100%" stop-color="#232120"/>
  </linearGradient>
  <radialGradient id="glot7zf" cx="30%" cy="18%" r="66%">
    <stop offset="0%" stop-color="#D3C3A6" stop-opacity=".30"/><stop offset="100%" stop-color="#D3C3A6" stop-opacity="0"/>
  </radialGradient>
  <radialGradient id="vgot7zf" cx="50%" cy="46%" r="72%">
    <stop offset="55%" stop-color="#000" stop-opacity="0"/><stop offset="100%" stop-color="#000" stop-opacity=".55"/>
  </radialGradient>
  <filter id="grot7zf"><feTurbulence type="fractalNoise" baseFrequency="0.85" numOctaves="4" seed="52"/>
    <feColorMatrix type="saturate" values="0"/></filter>
  <filter id="sfot7zf" x="-25%" y="-25%" width="150%" height="150%"><feColorMatrix type="matrix" values="0 0 0 0 0  0 0 0 0 0  0 0 0 0 0  0 0 0 1 0"/><feGaussianBlur stdDeviation="18"/></filter>
  <linearGradient id="lg" x1="16%" y1="4%" x2="86%" y2="100%">
    <stop offset="0%" stop-color="#9d958c"/><stop offset="50%" stop-color="#7E7468"/><stop offset="100%" stop-color="#454039"/>
  </linearGradient>
  <linearGradient id="lg2" x1="0%" y1="0%" x2="100%" y2="100%">
    <stop offset="0%" stop-color="#746b60"/><stop offset="100%" stop-color="#454039"/>
  </linearGradient>
  <linearGradient id="metal" x1="0%" y1="0%" x2="100%" y2="100%">
    <stop offset="0%" stop-color="#EFEDE9"/><stop offset="40%" stop-color="#96948F"/>
    <stop offset="64%" stop-color="#E0DDD8"/><stop offset="100%" stop-color="#7A7874"/>
  </linearGradient>
</defs>
<style>svg{--dk:#454039;--st:#b2aca4;--bg2:#232120}</style>
<rect width="880" height="660" fill="url(#bgot7zf)"/>
<rect width="880" height="660" fill="url(#glot7zf)"/>



<g transform="translate(440,330) scale(0.5961290322580646) translate(-400,-480)" opacity=".92">
         <g filter="url(#sfot7zf)" opacity=".45" transform="translate(10,18)">
  <path d="M244 328 h312 q26 0 26 26 v300 q0 26 -26 26 h-312 q-26 0 -26 -26 v-300 q0 -26 26 -26 z" fill="url(#lg)"/>
  <path d="M300 328 v352 M400 328 v352 M500 328 v352" stroke="var(--dk)" stroke-width="4" opacity=".22"/>
  <path d="M330 328 v-84 h140 v84" fill="none" stroke="url(#metal)" stroke-width="11"/>
  <path d="M330 262 h140" stroke="url(#metal)" stroke-width="11"/>
  <path d="M242 350 L558 350" fill="none" stroke="var(--st)" stroke-width="2" stroke-dasharray="7 6" stroke-linecap="round" opacity=".55"/>
  <circle cx="276" cy="700" r="20" fill="url(#metal)" opacity=".9"/>
  <circle cx="524" cy="700" r="20" fill="url(#metal)" opacity=".9"/>
  <path d="M566 410 h26 v54 h-26 z" fill="url(#metal)"/></g>
         <g>
  <path d="M244 328 h312 q26 0 26 26 v300 q0 26 -26 26 h-312 q-26 0 -26 -26 v-300 q0 -26 26 -26 z" fill="url(#lg)"/>
  <path d="M300 328 v352 M400 328 v352 M500 328 v352" stroke="var(--dk)" stroke-width="4" opacity=".22"/>
  <path d="M330 328 v-84 h140 v84" fill="none" stroke="url(#metal)" stroke-width="11"/>
  <path d="M330 262 h140" stroke="url(#metal)" stroke-width="11"/>
  <path d="M242 350 L558 350" fill="none" stroke="var(--st)" stroke-width="2" stroke-dasharray="7 6" stroke-linecap="round" opacity=".55"/>
  <circle cx="276" cy="700" r="20" fill="url(#metal)" opacity=".9"/>
  <circle cx="524" cy="700" r="20" fill="url(#metal)" opacity=".9"/>
  <path d="M566 410 h26 v54 h-26 z" fill="url(#metal)"/></g>
       </g>
<rect width="880" height="660" filter="url(#grot7zf)" opacity=".10" style="mix-blend-mode:overlay"/>
<rect width="880" height="660" fill="url(#vgot7zf)"/>
</svg>